<?xml version="1.0" standalone="no"?>
<!DOCTYPE svg PUBLIC "-//W3C//DTD SVG 20010904//EN"
 "http://www.w3.org/TR/2001/REC-SVG-20010904/DTD/svg10.dtd">
<svg version="1.0" xmlns="http://www.w3.org/2000/svg"
 width="761.000000pt" height="328.000000pt" viewBox="0 0 761.000000 328.000000"
 preserveAspectRatio="xMidYMid meet">

<g transform="translate(0.000000,328.000000) scale(0.100000,-0.100000)"
fill="#000000" stroke="none">
<path d="M486 3061 c-136 -48 -210 -183 -180 -329 7 -34 22 -75 34 -92 33 -46
101 -99 142 -112 l38 -11 0 -248 0 -247 151 -119 c84 -65 211 -164 283 -221
72 -57 186 -146 254 -198 l122 -95 0 -250 c0 -229 -1 -250 -17 -255 -81 -25
-147 -79 -183 -151 -21 -40 -25 -62 -24 -128 0 -95 19 -140 87 -203 61 -56
105 -72 192 -72 89 0 132 17 196 77 161 150 94 408 -123 477 -17 5 -18 26 -18
254 l0 249 101 79 c55 43 138 108 183 144 163 129 402 317 459 360 l57 45 0
248 c0 227 1 248 18 254 94 31 153 82 190 163 84 182 -57 400 -259 400 -102 0
-217 -76 -259 -172 -32 -71 -31 -165 0 -231 27 -58 108 -133 161 -148 l39 -12
0 -222 0 -221 -27 -26 c-16 -14 -86 -70 -158 -126 -71 -55 -202 -157 -290
-226 -88 -70 -172 -136 -187 -147 l-28 -20 0 260 0 260 53 24 c71 32 107 66
142 129 26 46 30 63 30 133 0 70 -4 87 -30 134 -54 98 -171 160 -279 147 -101
-12 -180 -68 -232 -166 -29 -55 -26 -180 6 -243 30 -59 77 -102 147 -134 l53
-24 0 -261 c0 -207 -3 -258 -12 -251 -19 15 -293 230 -442 347 -71 55 -156
123 -188 149 l-58 48 0 215 c0 195 2 215 18 221 93 31 153 82 190 162 51 112
24 242 -70 326 -79 71 -182 92 -282 56z m168 -111 c72 -35 114 -122 95 -194
-31 -114 -147 -168 -249 -116 -59 30 -90 82 -90 150 0 73 30 126 89 157 54 28
102 29 155 3z m1610 0 c72 -35 114 -122 95 -194 -31 -114 -147 -168 -249 -116
-59 30 -90 82 -90 150 0 73 30 126 89 157 54 28 102 29 155 3z"/>
<path d="M2920 1705 l0 -365 194 0 c166 0 203 3 259 20 138 43 218 158 225
325 8 184 -66 308 -217 366 -45 17 -77 19 -256 19 l-205 0 0 -365z m420 163
c73 -50 97 -176 51 -267 -32 -61 -79 -80 -198 -81 l-93 0 0 185 0 185 104 0
c90 0 107 -3 136 -22z"/>
<path d="M4480 1975 l0 -95 -75 0 -75 0 0 -60 0 -60 75 0 75 0 0 -210 0 -210
70 0 70 0 0 210 0 210 75 0 75 0 0 60 0 59 -72 3 -73 3 -3 93 -3 92 -69 0 -70
0 0 -95z"/>
<path d="M6043 2050 c-61 -56 -23 -140 63 -140 32 0 74 45 74 80 0 65 -90 105
-137 60z"/>
<path d="M6260 1705 l0 -365 75 0 75 0 0 365 0 365 -75 0 -75 0 0 -365z"/>
<path d="M6490 1705 l0 -365 75 0 75 0 0 123 c0 68 -3 232 -7 365 l-6 242 -69
0 -68 0 0 -365z"/>
<path d="M3905 1881 c-87 -22 -165 -83 -199 -156 -28 -59 -27 -166 2 -227 30
-62 86 -111 156 -137 66 -25 122 -26 189 -6 41 12 47 12 47 0 0 -12 16 -15 75
-15 l75 0 0 270 0 270 -74 0 c-50 0 -76 -4 -78 -12 -4 -10 -10 -10 -30 -1 -34
15 -126 23 -163 14z m108 -145 c108 -45 117 -185 15 -237 -46 -23 -87 -24
-125 -3 -69 40 -92 123 -51 184 24 36 78 70 111 70 10 0 32 -6 50 -14z"/>
<path d="M5050 1881 c-81 -17 -157 -76 -199 -156 -28 -52 -29 -162 -2 -221 56
-122 213 -191 344 -151 40 13 47 13 47 1 0 -11 17 -14 75 -14 l75 0 0 270 0
270 -74 0 c-41 0 -76 -4 -78 -9 -2 -6 -26 -3 -58 5 -58 15 -75 16 -130 5z
m137 -158 c75 -50 69 -173 -10 -222 -68 -42 -153 -14 -191 62 -57 118 88 234
201 160z"/>
<path d="M6937 1880 c-122 -31 -204 -122 -214 -242 -9 -90 11 -143 77 -210 83
-82 176 -106 286 -73 27 8 50 15 52 15 1 0 2 -7 2 -15 0 -12 14 -15 70 -15
l70 0 0 270 0 270 -74 0 c-47 0 -76 -4 -78 -11 -3 -9 -9 -9 -23 -1 -30 15
-125 22 -168 12z m136 -152 c31 -16 57 -70 57 -116 0 -105 -115 -167 -201
-109 -118 79 -48 263 91 241 19 -3 43 -10 53 -16z"/>
<path d="M5480 1810 l0 -70 110 0 c61 0 110 -2 110 -5 0 -3 -52 -65 -115 -137
l-115 -130 0 -64 0 -64 230 0 230 0 0 70 0 70 -109 0 c-61 0 -112 4 -115 8 -3
5 46 67 109 138 l114 129 1 63 0 62 -225 0 -225 0 0 -70z"/>
<path d="M6020 1610 l0 -270 75 0 75 0 0 270 0 270 -75 0 -75 0 0 -270z"/>
</g>
</svg>
